<svg version="1.1" id="Layer_1" xmlns="http://www.w3.org/2000/svg" xmlns:xlink="http://www.w3.org/1999/xlink" x="0px" y="0px"
	 viewBox="0 0 19 22.8" style="enable-background:new 0 0 19 22.8;" xml:space="preserve">
<style type="text/css">
	.st0{fill:#FFFFFF;}
</style>
<g>
	<path class="st0" d="M2.5,22.8c-0.1,0-0.3-0.1-0.3-0.1C2,22.5,2,22.3,2.1,22.1l3.6-5.8c0-0.1,0.1-0.1,0.2-0.2l0.7-0.4l-0.4,0.1
		c-0.2,0.1-0.4,0-0.5-0.2l-3.1-5.2c-0.1-0.2-0.1-0.4,0-0.5c0.1-0.2,0.3-0.2,0.5-0.2l1.3,0.3L2.1,9C1.9,9,1.8,8.8,1.8,8.7L0,0.6
		c0-0.2,0-0.4,0.2-0.5C0.4,0,0.6,0,0.8,0.1l10.8,8.5l1.6-2.1c0.1-0.1,0.2-0.2,0.3-0.2l5.1-1c0.2,0,0.4,0,0.5,0.2
		c0.1,0.2,0.1,0.4,0,0.5l-2.6,3.8V15c0,0.2-0.1,0.3-0.2,0.4L2.8,22.7C2.7,22.8,2.6,22.8,2.5,22.8z M6.5,16.9L3.9,21l11.5-6.3v-5
		c0-0.1,0-0.2,0.1-0.3l2-3l-3.8,0.7L12,9.5c-0.1,0.1-0.2,0.2-0.3,0.2c-0.1,0-0.3,0-0.4-0.1L1.2,1.7l1.5,6.6l6.9,3.3
		c0.2,0.1,0.3,0.4,0.2,0.6c-0.1,0.2-0.3,0.4-0.6,0.3L3.9,11l2.3,3.9l3.2-0.8c0.2-0.1,0.5,0.1,0.6,0.3c0.1,0.2,0,0.5-0.2,0.6
		L6.5,16.9z"/>
</g>
</svg>
